STARTFONT 2.1
FONT -Fondu-Espy Sans-Medium-R-Normal--9-90-75-75-P-52-MacRoman-1
SIZE 9 75 75
FONTBOUNDINGBOX 11 12 -1 -2
COMMENT Created by Fondu from a mac NFNT/FONT resource
STARTPROPERTIES 17
FOUNDRY "Fondu"
FAMILY_NAME "Espy Sans"
WEIGHT_NAME "Medium"
SLANT "R"
SETWIDTH_NAME "Normal"
ADD_STYLE_NAME ""
PIXEL_SIZE 9
POINT_SIZE 90
RESOLUTION_X 75
RESOLUTION_Y 75
SPACING "P"
AVERAGE_WIDTH 52
CHARSET_REGISTRY "MacRoman"
CHARSET_ENCODING "1"
FONT_ASCENT 10
FONT_DESCENT 2
FACE_NAME "Espy Sans 9"
ENDPROPERTIES
CHARS 224
STARTCHAR space
ENCODING 32
SWIDTH 222 0
DWIDTH 2 0
BBX 0 0 -1 -2
BITMAP
ENDCHAR
STARTCHAR exclam
ENCODING 33
SWIDTH 222 0
DWIDTH 2 0
BBX 1 7 0 0
BITMAP
80
80
80
80
80
00
80
ENDCHAR
STARTCHAR quotedbl
ENCODING 34
SWIDTH 444 0
DWIDTH 4 0
BBX 3 3 0 5
BITMAP
A0
A0
A0
ENDCHAR
STARTCHAR numbersign
ENCODING 35
SWIDTH 888 0
DWIDTH 8 0
BBX 7 7 0 0
BITMAP
14
14
7E
28
FC
50
50
ENDCHAR
STARTCHAR dollar
ENCODING 36
SWIDTH 666 0
DWIDTH 6 0
BBX 5 9 0 -1
BITMAP
20
78
A0
A0
70
28
28
F0
20
ENDCHAR
STARTCHAR percent
ENCODING 37
SWIDTH 888 0
DWIDTH 8 0
BBX 7 7 0 0
BITMAP
44
A4
A8
54
2A
4A
44
ENDCHAR
STARTCHAR ampersand
ENCODING 38
SWIDTH 777 0
DWIDTH 7 0
BBX 6 7 0 0
BITMAP
30
48
50
20
54
88
74
ENDCHAR
STARTCHAR quotesingle
ENCODING 39
SWIDTH 222 0
DWIDTH 2 0
BBX 1 3 0 5
BITMAP
80
80
80
ENDCHAR
STARTCHAR parenleft
ENCODING 40
SWIDTH 444 0
DWIDTH 4 0
BBX 3 9 0 -1
BITMAP
20
40
40
80
80
80
40
40
20
ENDCHAR
STARTCHAR parenright
ENCODING 41
SWIDTH 444 0
DWIDTH 4 0
BBX 3 9 0 -1
BITMAP
80
40
40
20
20
20
40
40
80
ENDCHAR
STARTCHAR asterisk
ENCODING 42
SWIDTH 666 0
DWIDTH 6 0
BBX 5 5 0 3
BITMAP
50
20
D8
20
50
ENDCHAR
STARTCHAR plus
ENCODING 43
SWIDTH 666 0
DWIDTH 6 0
BBX 5 5 0 1
BITMAP
20
20
F8
20
20
ENDCHAR
STARTCHAR comma
ENCODING 44
SWIDTH 222 0
DWIDTH 2 0
BBX 2 2 -1 -1
BITMAP
40
80
ENDCHAR
STARTCHAR hyphen
ENCODING 45
SWIDTH 444 0
DWIDTH 4 0
BBX 3 1 0 3
BITMAP
E0
ENDCHAR
STARTCHAR period
ENCODING 46
SWIDTH 222 0
DWIDTH 2 0
BBX 1 1 0 0
BITMAP
80
ENDCHAR
STARTCHAR slash
ENCODING 47
SWIDTH 555 0
DWIDTH 5 0
BBX 4 7 0 0
BITMAP
10
10
20
40
40
80
80
ENDCHAR
STARTCHAR zero
ENCODING 48
SWIDTH 666 0
DWIDTH 6 0
BBX 5 7 0 0
BITMAP
70
88
88
88
88
88
70
ENDCHAR
STARTCHAR one
ENCODING 49
SWIDTH 666 0
DWIDTH 6 0
BBX 2 7 1 0
BITMAP
40
C0
40
40
40
40
40
ENDCHAR
STARTCHAR two
ENCODING 50
SWIDTH 666 0
DWIDTH 6 0
BBX 5 7 0 0
BITMAP
70
88
08
30
40
80
F8
ENDCHAR
STARTCHAR three
ENCODING 51
SWIDTH 666 0
DWIDTH 6 0
BBX 5 7 0 0
BITMAP
70
88
08
30
08
88
70
ENDCHAR
STARTCHAR four
ENCODING 52
SWIDTH 666 0
DWIDTH 6 0
BBX 5 7 0 0
BITMAP
10
30
50
90
F8
10
10
ENDCHAR
STARTCHAR five
ENCODING 53
SWIDTH 666 0
DWIDTH 6 0
BBX 5 7 0 0
BITMAP
F8
80
80
F0
08
08
F0
ENDCHAR
STARTCHAR six
ENCODING 54
SWIDTH 666 0
DWIDTH 6 0
BBX 5 7 0 0
BITMAP
30
40
80
F0
88
88
70
ENDCHAR
STARTCHAR seven
ENCODING 55
SWIDTH 666 0
DWIDTH 6 0
BBX 5 7 0 0
BITMAP
F8
08
10
10
20
20
20
ENDCHAR
STARTCHAR eight
ENCODING 56
SWIDTH 666 0
DWIDTH 6 0
BBX 5 7 0 0
BITMAP
70
88
88
70
88
88
70
ENDCHAR
STARTCHAR nine
ENCODING 57
SWIDTH 666 0
DWIDTH 6 0
BBX 5 7 0 0
BITMAP
70
88
88
78
08
10
60
ENDCHAR
STARTCHAR colon
ENCODING 58
SWIDTH 222 0
DWIDTH 2 0
BBX 1 5 0 0
BITMAP
80
00
00
00
80
ENDCHAR
STARTCHAR semicolon
ENCODING 59
SWIDTH 222 0
DWIDTH 2 0
BBX 2 6 -1 -1
BITMAP
40
00
00
00
40
80
ENDCHAR
STARTCHAR less
ENCODING 60
SWIDTH 666 0
DWIDTH 6 0
BBX 5 5 0 1
BITMAP
08
30
C0
30
08
ENDCHAR
STARTCHAR equal
ENCODING 61
SWIDTH 666 0
DWIDTH 6 0
BBX 5 3 0 2
BITMAP
F8
00
F8
ENDCHAR
STARTCHAR greater
ENCODING 62
SWIDTH 666 0
DWIDTH 6 0
BBX 5 5 0 1
BITMAP
80
60
18
60
80
ENDCHAR
STARTCHAR question
ENCODING 63
SWIDTH 555 0
DWIDTH 5 0
BBX 4 7 0 0
BITMAP
E0
10
20
40
40
00
40
ENDCHAR
STARTCHAR at
ENCODING 64
SWIDTH 888 0
DWIDTH 8 0
BBX 7 7 0 -1
BITMAP
38
44
9A
AA
94
40
38
ENDCHAR
STARTCHAR A
ENCODING 65
SWIDTH 666 0
DWIDTH 6 0
BBX 5 7 0 0
BITMAP
20
20
50
50
F8
88
88
ENDCHAR
STARTCHAR B
ENCODING 66
SWIDTH 555 0
DWIDTH 5 0
BBX 4 7 0 0
BITMAP
E0
90
90
E0
90
90
E0
ENDCHAR
STARTCHAR C
ENCODING 67
SWIDTH 666 0
DWIDTH 6 0
BBX 5 7 0 0
BITMAP
38
40
80
80
80
40
38
ENDCHAR
STARTCHAR D
ENCODING 68
SWIDTH 777 0
DWIDTH 7 0
BBX 6 7 0 0
BITMAP
F0
88
84
84
84
88
F0
ENDCHAR
STARTCHAR E
ENCODING 69
SWIDTH 555 0
DWIDTH 5 0
BBX 4 7 0 0
BITMAP
F0
80
80
E0
80
80
F0
ENDCHAR
STARTCHAR F
ENCODING 70
SWIDTH 444 0
DWIDTH 4 0
BBX 4 7 0 0
BITMAP
F0
80
80
E0
80
80
80
ENDCHAR
STARTCHAR G
ENCODING 71
SWIDTH 777 0
DWIDTH 7 0
BBX 6 7 0 0
BITMAP
3C
40
80
8C
84
44
3C
ENDCHAR
STARTCHAR H
ENCODING 72
SWIDTH 666 0
DWIDTH 6 0
BBX 5 7 0 0
BITMAP
88
88
88
F8
88
88
88
ENDCHAR
STARTCHAR I
ENCODING 73
SWIDTH 222 0
DWIDTH 2 0
BBX 1 7 0 0
BITMAP
80
80
80
80
80
80
80
ENDCHAR
STARTCHAR J
ENCODING 74
SWIDTH 444 0
DWIDTH 4 0
BBX 3 7 0 0
BITMAP
20
20
20
20
20
20
C0
ENDCHAR
STARTCHAR K
ENCODING 75
SWIDTH 666 0
DWIDTH 6 0
BBX 5 7 0 0
BITMAP
88
90
A0
C0
A0
90
88
ENDCHAR
STARTCHAR L
ENCODING 76
SWIDTH 555 0
DWIDTH 5 0
BBX 4 7 0 0
BITMAP
80
80
80
80
80
80
F0
ENDCHAR
STARTCHAR M
ENCODING 77
SWIDTH 888 0
DWIDTH 8 0
BBX 7 7 0 0
BITMAP
C6
C6
AA
AA
AA
92
92
ENDCHAR
STARTCHAR N
ENCODING 78
SWIDTH 666 0
DWIDTH 6 0
BBX 5 7 0 0
BITMAP
C8
C8
A8
A8
98
98
88
ENDCHAR
STARTCHAR O
ENCODING 79
SWIDTH 888 0
DWIDTH 8 0
BBX 7 7 0 0
BITMAP
38
44
82
82
82
44
38
ENDCHAR
STARTCHAR P
ENCODING 80
SWIDTH 555 0
DWIDTH 5 0
BBX 4 7 0 0
BITMAP
E0
90
90
E0
80
80
80
ENDCHAR
STARTCHAR Q
ENCODING 81
SWIDTH 888 0
DWIDTH 8 0
BBX 7 8 0 -1
BITMAP
38
44
82
82
82
44
38
06
ENDCHAR
STARTCHAR R
ENCODING 82
SWIDTH 555 0
DWIDTH 5 0
BBX 4 7 0 0
BITMAP
E0
90
90
E0
A0
90
90
ENDCHAR
STARTCHAR S
ENCODING 83
SWIDTH 555 0
DWIDTH 5 0
BBX 4 7 0 0
BITMAP
70
80
80
60
10
10
E0
ENDCHAR
STARTCHAR T
ENCODING 84
SWIDTH 666 0
DWIDTH 6 0
BBX 5 7 0 0
BITMAP
F8
20
20
20
20
20
20
ENDCHAR
STARTCHAR U
ENCODING 85
SWIDTH 666 0
DWIDTH 6 0
BBX 5 7 0 0
BITMAP
88
88
88
88
88
88
70
ENDCHAR
STARTCHAR V
ENCODING 86
SWIDTH 666 0
DWIDTH 6 0
BBX 5 7 0 0
BITMAP
88
88
88
50
50
20
20
ENDCHAR
STARTCHAR W
ENCODING 87
SWIDTH 1111 0
DWIDTH 10 0
BBX 9 7 0 0
BITMAP
8880
8880
5500
5500
5500
2200
2200
ENDCHAR
STARTCHAR X
ENCODING 88
SWIDTH 666 0
DWIDTH 6 0
BBX 5 7 0 0
BITMAP
88
88
50
20
50
88
88
ENDCHAR
STARTCHAR Y
ENCODING 89
SWIDTH 666 0
DWIDTH 6 0
BBX 5 7 0 0
BITMAP
88
88
50
20
20
20
20
ENDCHAR
STARTCHAR Z
ENCODING 90
SWIDTH 666 0
DWIDTH 6 0
BBX 5 7 0 0
BITMAP
F8
08
10
20
40
80
F8
ENDCHAR
STARTCHAR bracketleft
ENCODING 91
SWIDTH 333 0
DWIDTH 3 0
BBX 2 9 0 -1
BITMAP
C0
80
80
80
80
80
80
80
C0
ENDCHAR
STARTCHAR backslash
ENCODING 92
SWIDTH 555 0
DWIDTH 5 0
BBX 4 7 0 0
BITMAP
80
80
40
20
20
10
10
ENDCHAR
STARTCHAR bracketright
ENCODING 93
SWIDTH 333 0
DWIDTH 3 0
BBX 2 9 0 -1
BITMAP
C0
40
40
40
40
40
40
40
C0
ENDCHAR
STARTCHAR asciicircum
ENCODING 94
SWIDTH 666 0
DWIDTH 6 0
BBX 5 5 0 2
BITMAP
20
20
50
50
88
ENDCHAR
STARTCHAR underscore
ENCODING 95
SWIDTH 444 0
DWIDTH 4 0
BBX 5 1 -1 -1
BITMAP
F8
ENDCHAR
STARTCHAR grave
ENCODING 96
SWIDTH 333 0
DWIDTH 3 0
BBX 2 2 0 6
BITMAP
80
40
ENDCHAR
STARTCHAR a
ENCODING 97
SWIDTH 555 0
DWIDTH 5 0
BBX 4 5 0 0
BITMAP
60
10
70
90
70
ENDCHAR
STARTCHAR b
ENCODING 98
SWIDTH 555 0
DWIDTH 5 0
BBX 4 7 0 0
BITMAP
80
80
E0
90
90
90
E0
ENDCHAR
STARTCHAR c
ENCODING 99
SWIDTH 444 0
DWIDTH 4 0
BBX 3 5 0 0
BITMAP
60
80
80
80
60
ENDCHAR
STARTCHAR d
ENCODING 100
SWIDTH 555 0
DWIDTH 5 0
BBX 4 7 0 0
BITMAP
10
10
70
90
90
90
70
ENDCHAR
STARTCHAR e
ENCODING 101
SWIDTH 555 0
DWIDTH 5 0
BBX 4 5 0 0
BITMAP
60
90
F0
80
70
ENDCHAR
STARTCHAR f
ENCODING 102
SWIDTH 444 0
DWIDTH 4 0
BBX 4 7 0 0
BITMAP
30
40
E0
40
40
40
40
ENDCHAR
STARTCHAR g
ENCODING 103
SWIDTH 555 0
DWIDTH 5 0
BBX 4 7 0 -2
BITMAP
70
90
90
90
70
10
60
ENDCHAR
STARTCHAR h
ENCODING 104
SWIDTH 555 0
DWIDTH 5 0
BBX 4 7 0 0
BITMAP
80
80
E0
90
90
90
90
ENDCHAR
STARTCHAR i
ENCODING 105
SWIDTH 222 0
DWIDTH 2 0
BBX 1 7 0 0
BITMAP
80
00
80
80
80
80
80
ENDCHAR
STARTCHAR j
ENCODING 106
SWIDTH 222 0
DWIDTH 2 0
BBX 2 9 -1 -2
BITMAP
40
00
40
40
40
40
40
40
80
ENDCHAR
STARTCHAR k
ENCODING 107
SWIDTH 555 0
DWIDTH 5 0
BBX 4 7 0 0
BITMAP
80
80
90
A0
C0
A0
90
ENDCHAR
STARTCHAR l
ENCODING 108
SWIDTH 222 0
DWIDTH 2 0
BBX 1 7 0 0
BITMAP
80
80
80
80
80
80
80
ENDCHAR
STARTCHAR m
ENCODING 109
SWIDTH 888 0
DWIDTH 8 0
BBX 7 5 0 0
BITMAP
EC
92
92
92
92
ENDCHAR
STARTCHAR n
ENCODING 110
SWIDTH 555 0
DWIDTH 5 0
BBX 4 5 0 0
BITMAP
E0
90
90
90
90
ENDCHAR
STARTCHAR o
ENCODING 111
SWIDTH 555 0
DWIDTH 5 0
BBX 4 5 0 0
BITMAP
60
90
90
90
60
ENDCHAR
STARTCHAR p
ENCODING 112
SWIDTH 555 0
DWIDTH 5 0
BBX 4 7 0 -2
BITMAP
E0
90
90
90
E0
80
80
ENDCHAR
STARTCHAR q
ENCODING 113
SWIDTH 555 0
DWIDTH 5 0
BBX 4 7 0 -2
BITMAP
70
90
90
90
70
10
10
ENDCHAR
STARTCHAR r
ENCODING 114
SWIDTH 444 0
DWIDTH 4 0
BBX 3 5 0 0
BITMAP
A0
C0
80
80
80
ENDCHAR
STARTCHAR s
ENCODING 115
SWIDTH 444 0
DWIDTH 4 0
BBX 3 5 0 0
BITMAP
60
80
40
20
C0
ENDCHAR
STARTCHAR t
ENCODING 116
SWIDTH 444 0
DWIDTH 4 0
BBX 3 6 0 0
BITMAP
40
E0
40
40
40
20
ENDCHAR
STARTCHAR u
ENCODING 117
SWIDTH 555 0
DWIDTH 5 0
BBX 4 5 0 0
BITMAP
90
90
90
90
70
ENDCHAR
STARTCHAR v
ENCODING 118
SWIDTH 555 0
DWIDTH 5 0
BBX 5 5 0 0
BITMAP
88
50
50
20
20
ENDCHAR
STARTCHAR w
ENCODING 119
SWIDTH 777 0
DWIDTH 7 0
BBX 7 5 0 0
BITMAP
92
54
54
28
28
ENDCHAR
STARTCHAR x
ENCODING 120
SWIDTH 666 0
DWIDTH 6 0
BBX 5 5 0 0
BITMAP
88
50
20
50
88
ENDCHAR
STARTCHAR y
ENCODING 121
SWIDTH 666 0
DWIDTH 6 0
BBX 5 7 0 -2
BITMAP
88
50
50
20
20
40
80
ENDCHAR
STARTCHAR z
ENCODING 122
SWIDTH 444 0
DWIDTH 4 0
BBX 3 5 0 0
BITMAP
E0
20
40
80
E0
ENDCHAR
STARTCHAR braceleft
ENCODING 123
SWIDTH 444 0
DWIDTH 4 0
BBX 3 9 0 -1
BITMAP
20
40
40
40
80
40
40
40
20
ENDCHAR
STARTCHAR bar
ENCODING 124
SWIDTH 222 0
DWIDTH 2 0
BBX 1 9 0 -1
BITMAP
80
80
80
80
80
80
80
80
80
ENDCHAR
STARTCHAR braceright
ENCODING 125
SWIDTH 444 0
DWIDTH 4 0
BBX 3 9 0 -1
BITMAP
80
40
40
40
20
40
40
40
80
ENDCHAR
STARTCHAR asciitilde
ENCODING 126
SWIDTH 777 0
DWIDTH 7 0
BBX 6 2 0 3
BITMAP
64
98
ENDCHAR
STARTCHAR char007f
ENCODING 127
SWIDTH 0 0
DWIDTH 0 0
BBX 0 0 -1 -2
BITMAP
ENDCHAR
STARTCHAR Adieresis
ENCODING 128
SWIDTH 666 0
DWIDTH 6 0
BBX 5 9 0 0
BITMAP
50
00
20
20
50
50
F8
88
88
ENDCHAR
STARTCHAR Aring
ENCODING 129
SWIDTH 666 0
DWIDTH 6 0
BBX 5 10 0 0
BITMAP
20
50
20
20
20
50
50
F8
88
88
ENDCHAR
STARTCHAR Ccedilla
ENCODING 130
SWIDTH 666 0
DWIDTH 6 0
BBX 5 9 0 -2
BITMAP
38
40
80
80
80
40
38
10
20
ENDCHAR
STARTCHAR Eacute
ENCODING 131
SWIDTH 555 0
DWIDTH 5 0
BBX 4 10 0 0
BITMAP
20
40
00
F0
80
80
E0
80
80
F0
ENDCHAR
STARTCHAR Ntilde
ENCODING 132
SWIDTH 666 0
DWIDTH 6 0
BBX 5 10 0 0
BITMAP
68
B0
00
C8
C8
A8
A8
98
98
88
ENDCHAR
STARTCHAR Odieresis
ENCODING 133
SWIDTH 888 0
DWIDTH 8 0
BBX 7 9 0 0
BITMAP
28
00
38
44
82
82
82
44
38
ENDCHAR
STARTCHAR Udieresis
ENCODING 134
SWIDTH 666 0
DWIDTH 6 0
BBX 5 9 0 0
BITMAP
50
00
88
88
88
88
88
88
70
ENDCHAR
STARTCHAR aacute
ENCODING 135
SWIDTH 555 0
DWIDTH 5 0
BBX 4 8 0 0
BITMAP
10
20
00
60
10
70
90
70
ENDCHAR
STARTCHAR agrave
ENCODING 136
SWIDTH 555 0
DWIDTH 5 0
BBX 4 8 0 0
BITMAP
40
20
00
60
10
70
90
70
ENDCHAR
STARTCHAR acircumflex
ENCODING 137
SWIDTH 555 0
DWIDTH 5 0
BBX 4 8 0 0
BITMAP
20
50
00
60
10
70
90
70
ENDCHAR
STARTCHAR adieresis
ENCODING 138
SWIDTH 555 0
DWIDTH 5 0
BBX 4 7 0 0
BITMAP
50
00
60
10
70
90
70
ENDCHAR
STARTCHAR atilde
ENCODING 139
SWIDTH 555 0
DWIDTH 5 0
BBX 4 8 0 0
BITMAP
50
A0
00
60
10
70
90
70
ENDCHAR
STARTCHAR aring
ENCODING 140
SWIDTH 555 0
DWIDTH 5 0
BBX 4 8 0 0
BITMAP
20
50
20
60
10
70
90
70
ENDCHAR
STARTCHAR ccedilla
ENCODING 141
SWIDTH 444 0
DWIDTH 4 0
BBX 3 7 0 -2
BITMAP
60
80
80
80
60
40
80
ENDCHAR
STARTCHAR eacute
ENCODING 142
SWIDTH 555 0
DWIDTH 5 0
BBX 4 8 0 0
BITMAP
20
40
00
60
90
F0
80
70
ENDCHAR
STARTCHAR egrave
ENCODING 143
SWIDTH 555 0
DWIDTH 5 0
BBX 4 8 0 0
BITMAP
40
20
00
60
90
F0
80
70
ENDCHAR
STARTCHAR ecircumflex
ENCODING 144
SWIDTH 555 0
DWIDTH 5 0
BBX 4 8 0 0
BITMAP
20
50
00
60
90
F0
80
70
ENDCHAR
STARTCHAR edieresis
ENCODING 145
SWIDTH 555 0
DWIDTH 5 0
BBX 4 7 0 0
BITMAP
50
00
60
90
F0
80
70
ENDCHAR
STARTCHAR iacute
ENCODING 146
SWIDTH 222 0
DWIDTH 2 0
BBX 2 8 0 0
BITMAP
40
80
00
80
80
80
80
80
ENDCHAR
STARTCHAR igrave
ENCODING 147
SWIDTH 222 0
DWIDTH 2 0
BBX 2 8 0 0
BITMAP
80
40
00
80
80
80
80
80
ENDCHAR
STARTCHAR icircumflex
ENCODING 148
SWIDTH 222 0
DWIDTH 2 0
BBX 3 8 -1 0
BITMAP
40
A0
00
40
40
40
40
40
ENDCHAR
STARTCHAR idieresis
ENCODING 149
SWIDTH 222 0
DWIDTH 2 0
BBX 3 7 -1 0
BITMAP
A0
00
40
40
40
40
40
ENDCHAR
STARTCHAR ntilde
ENCODING 150
SWIDTH 555 0
DWIDTH 5 0
BBX 4 8 0 0
BITMAP
50
A0
00
E0
90
90
90
90
ENDCHAR
STARTCHAR oacute
ENCODING 151
SWIDTH 555 0
DWIDTH 5 0
BBX 4 8 0 0
BITMAP
20
40
00
60
90
90
90
60
ENDCHAR
STARTCHAR ograve
ENCODING 152
SWIDTH 555 0
DWIDTH 5 0
BBX 4 8 0 0
BITMAP
40
20
00
60
90
90
90
60
ENDCHAR
STARTCHAR ocircumflex
ENCODING 153
SWIDTH 555 0
DWIDTH 5 0
BBX 4 8 0 0
BITMAP
20
50
00
60
90
90
90
60
ENDCHAR
STARTCHAR odieresis
ENCODING 154
SWIDTH 555 0
DWIDTH 5 0
BBX 4 7 0 0
BITMAP
50
00
60
90
90
90
60
ENDCHAR
STARTCHAR otilde
ENCODING 155
SWIDTH 555 0
DWIDTH 5 0
BBX 4 8 0 0
BITMAP
50
A0
00
60
90
90
90
60
ENDCHAR
STARTCHAR uacute
ENCODING 156
SWIDTH 555 0
DWIDTH 5 0
BBX 4 8 0 0
BITMAP
20
40
00
90
90
90
90
70
ENDCHAR
STARTCHAR ugrave
ENCODING 157
SWIDTH 555 0
DWIDTH 5 0
BBX 4 8 0 0
BITMAP
40
20
00
90
90
90
90
70
ENDCHAR
STARTCHAR ucircumflex
ENCODING 158
SWIDTH 555 0
DWIDTH 5 0
BBX 4 8 0 0
BITMAP
20
50
00
90
90
90
90
70
ENDCHAR
STARTCHAR udieresis
ENCODING 159
SWIDTH 555 0
DWIDTH 5 0
BBX 4 7 0 0
BITMAP
50
00
90
90
90
90
70
ENDCHAR
STARTCHAR dagger
ENCODING 160
SWIDTH 888 0
DWIDTH 8 0
BBX 7 7 0 0
BITMAP
44
AA
7C
28
7C
AA
44
ENDCHAR
STARTCHAR degree
ENCODING 161
SWIDTH 555 0
DWIDTH 5 0
BBX 4 4 0 4
BITMAP
60
90
90
60
ENDCHAR
STARTCHAR cent
ENCODING 162
SWIDTH 666 0
DWIDTH 6 0
BBX 5 8 0 -1
BITMAP
20
70
A8
A0
A0
A8
70
20
ENDCHAR
STARTCHAR sterling
ENCODING 163
SWIDTH 666 0
DWIDTH 6 0
BBX 5 7 0 0
BITMAP
38
40
40
F0
40
40
F8
ENDCHAR
STARTCHAR section
ENCODING 164
SWIDTH 888 0
DWIDTH 8 0
BBX 7 7 0 0
BITMAP
10
38
54
EE
54
38
10
ENDCHAR
STARTCHAR bullet
ENCODING 165
SWIDTH 555 0
DWIDTH 5 0
BBX 3 3 0 2
BITMAP
E0
E0
E0
ENDCHAR
STARTCHAR paragraph
ENCODING 166
SWIDTH 666 0
DWIDTH 6 0
BBX 5 7 0 0
BITMAP
78
E8
E8
68
28
28
28
ENDCHAR
STARTCHAR germandbls
ENCODING 167
SWIDTH 666 0
DWIDTH 6 0
BBX 5 7 0 0
BITMAP
60
90
90
B0
88
88
B0
ENDCHAR
STARTCHAR registered
ENCODING 168
SWIDTH 888 0
DWIDTH 8 0
BBX 7 7 0 -1
BITMAP
38
44
BA
B2
AA
44
38
ENDCHAR
STARTCHAR copyright
ENCODING 169
SWIDTH 888 0
DWIDTH 8 0
BBX 7 7 0 -1
BITMAP
38
44
BA
A2
BA
44
38
ENDCHAR
STARTCHAR trademark
ENCODING 170
SWIDTH 1111 0
DWIDTH 10 0
BBX 9 3 0 4
BITMAP
E880
4D80
4A80
ENDCHAR
STARTCHAR acute
ENCODING 171
SWIDTH 333 0
DWIDTH 3 0
BBX 2 2 0 6
BITMAP
40
80
ENDCHAR
STARTCHAR dieresis
ENCODING 172
SWIDTH 444 0
DWIDTH 4 0
BBX 3 1 0 7
BITMAP
A0
ENDCHAR
STARTCHAR notequal
ENCODING 173
SWIDTH 666 0
DWIDTH 6 0
BBX 5 5 0 1
BITMAP
10
F8
20
F8
40
ENDCHAR
STARTCHAR AE
ENCODING 174
SWIDTH 1000 0
DWIDTH 9 0
BBX 8 7 0 0
BITMAP
1F
28
28
4E
78
88
8F
ENDCHAR
STARTCHAR Oslash
ENCODING 175
SWIDTH 888 0
DWIDTH 8 0
BBX 7 7 0 0
BITMAP
3A
44
8A
92
A2
44
B8
ENDCHAR
STARTCHAR infinity
ENCODING 176
SWIDTH 1111 0
DWIDTH 10 0
BBX 9 4 0 2
BITMAP
7300
8C80
9880
6700
ENDCHAR
STARTCHAR plusminus
ENCODING 177
SWIDTH 666 0
DWIDTH 6 0
BBX 5 6 0 1
BITMAP
20
20
F8
20
20
F8
ENDCHAR
STARTCHAR lessequal
ENCODING 178
SWIDTH 666 0
DWIDTH 6 0
BBX 5 7 0 0
BITMAP
08
30
C0
30
08
00
F8
ENDCHAR
STARTCHAR greaterequal
ENCODING 179
SWIDTH 666 0
DWIDTH 6 0
BBX 5 7 0 0
BITMAP
80
60
18
60
80
00
F8
ENDCHAR
STARTCHAR yen
ENCODING 180
SWIDTH 666 0
DWIDTH 6 0
BBX 5 7 0 0
BITMAP
88
50
F8
20
F8
20
20
ENDCHAR
STARTCHAR mu
ENCODING 181
SWIDTH 555 0
DWIDTH 5 0
BBX 4 7 0 -2
BITMAP
90
90
90
90
F0
80
80
ENDCHAR
STARTCHAR partialdiff
ENCODING 182
SWIDTH 666 0
DWIDTH 6 0
BBX 5 8 0 0
BITMAP
70
08
08
78
88
88
88
70
ENDCHAR
STARTCHAR summation
ENCODING 183
SWIDTH 666 0
DWIDTH 6 0
BBX 5 8 0 -1
BITMAP
F8
80
40
20
20
40
80
F8
ENDCHAR
STARTCHAR product
ENCODING 184
SWIDTH 888 0
DWIDTH 8 0
BBX 7 8 0 -1
BITMAP
FE
44
44
44
44
44
44
44
ENDCHAR
STARTCHAR pi
ENCODING 185
SWIDTH 666 0
DWIDTH 6 0
BBX 5 5 0 0
BITMAP
F8
50
50
50
50
ENDCHAR
STARTCHAR integral
ENCODING 186
SWIDTH 444 0
DWIDTH 4 0
BBX 3 11 0 -2
BITMAP
20
40
40
40
40
40
40
40
40
40
80
ENDCHAR
STARTCHAR ordfeminine
ENCODING 187
SWIDTH 555 0
DWIDTH 5 0
BBX 4 5 0 2
BITMAP
70
90
70
00
F0
ENDCHAR
STARTCHAR ordmasculine
ENCODING 188
SWIDTH 555 0
DWIDTH 5 0
BBX 4 5 0 2
BITMAP
60
90
60
00
F0
ENDCHAR
STARTCHAR Omega
ENCODING 189
SWIDTH 888 0
DWIDTH 8 0
BBX 7 7 0 0
BITMAP
38
44
82
82
44
28
EE
ENDCHAR
STARTCHAR ae
ENCODING 190
SWIDTH 888 0
DWIDTH 8 0
BBX 7 5 0 0
BITMAP
6C
12
7E
90
7E
ENDCHAR
STARTCHAR oslash
ENCODING 191
SWIDTH 555 0
DWIDTH 5 0
BBX 6 5 -1 0
BITMAP
34
58
68
48
B0
ENDCHAR
STARTCHAR questiondown
ENCODING 192
SWIDTH 555 0
DWIDTH 5 0
BBX 4 7 0 -2
BITMAP
20
00
20
20
40
80
70
ENDCHAR
STARTCHAR exclamdown
ENCODING 193
SWIDTH 222 0
DWIDTH 2 0
BBX 1 7 0 -2
BITMAP
80
00
80
80
80
80
80
ENDCHAR
STARTCHAR logicalnot
ENCODING 194
SWIDTH 666 0
DWIDTH 6 0
BBX 5 3 0 1
BITMAP
F8
08
08
ENDCHAR
STARTCHAR radical
ENCODING 195
SWIDTH 777 0
DWIDTH 7 0
BBX 6 8 0 -1
BITMAP
04
04
08
08
D0
50
20
20
ENDCHAR
STARTCHAR florin
ENCODING 196
SWIDTH 777 0
DWIDTH 7 0
BBX 7 8 -1 -1
BITMAP
06
08
3C
10
10
20
20
C0
ENDCHAR
STARTCHAR approxequal
ENCODING 197
SWIDTH 777 0
DWIDTH 7 0
BBX 6 5 0 1
BITMAP
64
98
00
64
98
ENDCHAR
STARTCHAR Delta
ENCODING 198
SWIDTH 888 0
DWIDTH 8 0
BBX 7 7 0 0
BITMAP
10
10
28
28
44
44
FE
ENDCHAR
STARTCHAR guillemotleft
ENCODING 199
SWIDTH 666 0
DWIDTH 6 0
BBX 5 5 0 0
BITMAP
28
50
A0
50
28
ENDCHAR
STARTCHAR guillemotright
ENCODING 200
SWIDTH 666 0
DWIDTH 6 0
BBX 5 5 0 0
BITMAP
A0
50
28
50
A0
ENDCHAR
STARTCHAR ellipsis
ENCODING 201
SWIDTH 888 0
DWIDTH 8 0
BBX 7 1 0 0
BITMAP
92
ENDCHAR
STARTCHAR nbspace
ENCODING 202
SWIDTH 222 0
DWIDTH 2 0
BBX 0 0 -1 -2
BITMAP
ENDCHAR
STARTCHAR Agrave
ENCODING 203
SWIDTH 666 0
DWIDTH 6 0
BBX 5 10 0 0
BITMAP
40
20
00
20
20
50
50
F8
88
88
ENDCHAR
STARTCHAR Atilde
ENCODING 204
SWIDTH 666 0
DWIDTH 6 0
BBX 5 10 0 0
BITMAP
68
B0
00
20
20
50
50
F8
88
88
ENDCHAR
STARTCHAR Otilde
ENCODING 205
SWIDTH 888 0
DWIDTH 8 0
BBX 7 10 0 0
BITMAP
34
58
00
38
44
82
82
82
44
38
ENDCHAR
STARTCHAR OE
ENCODING 206
SWIDTH 1000 0
DWIDTH 9 0
BBX 8 7 0 0
BITMAP
3F
48
88
8E
88
48
3F
ENDCHAR
STARTCHAR oe
ENCODING 207
SWIDTH 888 0
DWIDTH 8 0
BBX 7 5 0 0
BITMAP
6C
92
9E
90
6E
ENDCHAR
STARTCHAR endash
ENCODING 208
SWIDTH 555 0
DWIDTH 5 0
BBX 4 1 0 3
BITMAP
F0
ENDCHAR
STARTCHAR emdash
ENCODING 209
SWIDTH 888 0
DWIDTH 8 0
BBX 7 1 0 3
BITMAP
FE
ENDCHAR
STARTCHAR quotedblleft
ENCODING 210
SWIDTH 555 0
DWIDTH 5 0
BBX 4 2 0 5
BITMAP
A0
50
ENDCHAR
STARTCHAR quotedblright
ENCODING 211
SWIDTH 555 0
DWIDTH 5 0
BBX 4 2 0 5
BITMAP
50
A0
ENDCHAR
STARTCHAR quoteleft
ENCODING 212
SWIDTH 333 0
DWIDTH 3 0
BBX 2 2 0 5
BITMAP
80
40
ENDCHAR
STARTCHAR quoteright
ENCODING 213
SWIDTH 333 0
DWIDTH 3 0
BBX 2 2 0 5
BITMAP
40
80
ENDCHAR
STARTCHAR divide
ENCODING 214
SWIDTH 666 0
DWIDTH 6 0
BBX 5 5 0 1
BITMAP
20
00
F8
00
20
ENDCHAR
STARTCHAR lozenge
ENCODING 215
SWIDTH 666 0
DWIDTH 6 0
BBX 5 9 0 -1
BITMAP
20
20
50
50
88
50
50
20
20
ENDCHAR
STARTCHAR ydieresis
ENCODING 216
SWIDTH 666 0
DWIDTH 6 0
BBX 5 9 0 -2
BITMAP
50
00
88
50
50
20
20
40
80
ENDCHAR
STARTCHAR Ydieresis
ENCODING 217
SWIDTH 666 0
DWIDTH 6 0
BBX 5 9 0 0
BITMAP
50
00
88
88
50
20
20
20
20
ENDCHAR
STARTCHAR fraction
ENCODING 218
SWIDTH 555 0
DWIDTH 5 0
BBX 4 8 0 0
BITMAP
10
10
20
20
40
40
80
80
ENDCHAR
STARTCHAR currency
ENCODING 219
SWIDTH 888 0
DWIDTH 8 0
BBX 7 7 0 0
BITMAP
92
6C
44
82
44
6C
92
ENDCHAR
STARTCHAR guilsinglleft
ENCODING 220
SWIDTH 444 0
DWIDTH 4 0
BBX 3 5 0 0
BITMAP
20
40
80
40
20
ENDCHAR
STARTCHAR guilsinglright
ENCODING 221
SWIDTH 444 0
DWIDTH 4 0
BBX 3 5 0 0
BITMAP
80
40
20
40
80
ENDCHAR
STARTCHAR fi
ENCODING 222
SWIDTH 666 0
DWIDTH 6 0
BBX 5 7 0 0
BITMAP
38
40
F8
48
48
48
48
ENDCHAR
STARTCHAR fl
ENCODING 223
SWIDTH 666 0
DWIDTH 6 0
BBX 5 7 0 0
BITMAP
38
48
E8
48
48
48
48
ENDCHAR
STARTCHAR daggerdbl
ENCODING 224
SWIDTH 888 0
DWIDTH 8 0
BBX 5 5 1 0
BITMAP
F8
F8
F8
F8
F8
ENDCHAR
STARTCHAR periodcentered
ENCODING 225
SWIDTH 222 0
DWIDTH 2 0
BBX 1 1 0 3
BITMAP
80
ENDCHAR
STARTCHAR quotesinglbase
ENCODING 226
SWIDTH 222 0
DWIDTH 2 0
BBX 2 2 -1 -1
BITMAP
40
80
ENDCHAR
STARTCHAR quotedblbase
ENCODING 227
SWIDTH 444 0
DWIDTH 4 0
BBX 4 2 -1 -1
BITMAP
50
A0
ENDCHAR
STARTCHAR perthousand
ENCODING 228
SWIDTH 1222 0
DWIDTH 11 0
BBX 10 7 0 0
BITMAP
4400
A400
A800
5480
2B40
4B40
4480
ENDCHAR
STARTCHAR Acircumflex
ENCODING 229
SWIDTH 666 0
DWIDTH 6 0
BBX 5 10 0 0
BITMAP
20
50
00
20
20
50
50
F8
88
88
ENDCHAR
STARTCHAR Ecircumflex
ENCODING 230
SWIDTH 555 0
DWIDTH 5 0
BBX 4 10 0 0
BITMAP
20
50
00
F0
80
80
E0
80
80
F0
ENDCHAR
STARTCHAR Aacute
ENCODING 231
SWIDTH 666 0
DWIDTH 6 0
BBX 5 10 0 0
BITMAP
10
20
00
20
20
50
50
F8
88
88
ENDCHAR
STARTCHAR Edieresis
ENCODING 232
SWIDTH 555 0
DWIDTH 5 0
BBX 4 9 0 0
BITMAP
50
00
F0
80
80
E0
80
80
F0
ENDCHAR
STARTCHAR Egrave
ENCODING 233
SWIDTH 555 0
DWIDTH 5 0
BBX 4 10 0 0
BITMAP
40
20
00
F0
80
80
E0
80
80
F0
ENDCHAR
STARTCHAR Iacute
ENCODING 234
SWIDTH 222 0
DWIDTH 2 0
BBX 2 10 0 0
BITMAP
40
80
00
80
80
80
80
80
80
80
ENDCHAR
STARTCHAR Icircumflex
ENCODING 235
SWIDTH 222 0
DWIDTH 2 0
BBX 3 10 -1 0
BITMAP
40
A0
00
40
40
40
40
40
40
40
ENDCHAR
STARTCHAR Idieresis
ENCODING 236
SWIDTH 222 0
DWIDTH 2 0
BBX 3 9 -1 0
BITMAP
A0
00
40
40
40
40
40
40
40
ENDCHAR
STARTCHAR Igrave
ENCODING 237
SWIDTH 222 0
DWIDTH 2 0
BBX 2 10 -1 0
BITMAP
80
40
00
40
40
40
40
40
40
40
ENDCHAR
STARTCHAR Oacute
ENCODING 238
SWIDTH 888 0
DWIDTH 8 0
BBX 7 10 0 0
BITMAP
08
10
00
38
44
82
82
82
44
38
ENDCHAR
STARTCHAR Ocircumflex
ENCODING 239
SWIDTH 888 0
DWIDTH 8 0
BBX 7 10 0 0
BITMAP
10
28
00
38
44
82
82
82
44
38
ENDCHAR
STARTCHAR apple
ENCODING 240
SWIDTH 777 0
DWIDTH 7 0
BBX 6 7 0 0
BITMAP
08
10
6C
F8
F8
FC
6C
ENDCHAR
STARTCHAR Ograve
ENCODING 241
SWIDTH 888 0
DWIDTH 8 0
BBX 7 10 0 0
BITMAP
20
10
00
38
44
82
82
82
44
38
ENDCHAR
STARTCHAR Uacute
ENCODING 242
SWIDTH 666 0
DWIDTH 6 0
BBX 5 10 0 0
BITMAP
10
20
00
88
88
88
88
88
88
70
ENDCHAR
STARTCHAR Ucircumflex
ENCODING 243
SWIDTH 666 0
DWIDTH 6 0
BBX 5 10 0 0
BITMAP
20
50
00
88
88
88
88
88
88
70
ENDCHAR
STARTCHAR Ugrave
ENCODING 244
SWIDTH 666 0
DWIDTH 6 0
BBX 5 10 0 0
BITMAP
40
20
00
88
88
88
88
88
88
70
ENDCHAR
STARTCHAR dotlessi
ENCODING 245
SWIDTH 222 0
DWIDTH 2 0
BBX 1 5 0 0
BITMAP
80
80
80
80
80
ENDCHAR
STARTCHAR circumflex
ENCODING 246
SWIDTH 444 0
DWIDTH 4 0
BBX 3 2 0 5
BITMAP
40
A0
ENDCHAR
STARTCHAR tilde
ENCODING 247
SWIDTH 555 0
DWIDTH 5 0
BBX 4 2 0 5
BITMAP
50
A0
ENDCHAR
STARTCHAR macron
ENCODING 248
SWIDTH 444 0
DWIDTH 4 0
BBX 3 1 0 5
BITMAP
E0
ENDCHAR
STARTCHAR breve
ENCODING 249
SWIDTH 555 0
DWIDTH 5 0
BBX 4 2 0 5
BITMAP
90
60
ENDCHAR
STARTCHAR dotaccent
ENCODING 250
SWIDTH 222 0
DWIDTH 2 0
BBX 1 1 0 5
BITMAP
80
ENDCHAR
STARTCHAR ring
ENCODING 251
SWIDTH 444 0
DWIDTH 4 0
BBX 3 3 0 4
BITMAP
40
A0
40
ENDCHAR
STARTCHAR cedilla
ENCODING 252
SWIDTH 444 0
DWIDTH 4 0
BBX 3 3 0 -2
BITMAP
40
20
C0
ENDCHAR
STARTCHAR hungarumlaut
ENCODING 253
SWIDTH 555 0
DWIDTH 5 0
BBX 4 2 0 5
BITMAP
50
A0
ENDCHAR
STARTCHAR ogonek
ENCODING 254
SWIDTH 444 0
DWIDTH 4 0
BBX 3 3 0 -2
BITMAP
40
80
60
ENDCHAR
STARTCHAR caron
ENCODING 255
SWIDTH 444 0
DWIDTH 4 0
BBX 3 2 0 5
BITMAP
A0
40
ENDCHAR
ENDFONT
